<svg width="24" height="24" viewBox="0 0 24 24" fill="none" xmlns="http://www.w3.org/2000/svg">
<path d="M19.4699 4.57317C17.5522 2.65537 14.4295 2.65336 12.509 4.57387C12.43 4.653 12.3693 4.74633 12.2961 4.83C12.4245 5.29205 12.6607 5.71913 13.0068 6.0653C13.8341 6.89203 15.1051 7.11999 16.1659 6.6352C16.3774 6.53906 16.6225 6.55214 16.8203 6.67158C17.0194 6.79106 17.1464 7.0005 17.1601 7.23188C17.202 7.91644 17.4925 8.56191 17.9786 9.04805C18.6772 9.74569 19.6618 10.0037 20.5768 9.80053C21.2597 8.00377 20.8469 5.95017 19.4699 4.57317Z" fill="white"/>
<path d="M16.9844 10.0423C16.4674 9.52527 16.098 8.88876 15.9043 8.1959C14.5181 8.49665 13.0384 8.08673 12.0126 7.05951C11.7733 6.82049 11.5786 6.55002 11.4056 6.26727L8.36594 13.8181C6.46673 18.5362 2.76628 21.0618 1.16645 22.1138C0.737327 22.396 0.427635 22.5999 0.222331 22.7936C0.0678366 22.9385 -0.0138635 23.1465 0.00193281 23.3573C0.0252757 23.6752 0.262876 23.9389 0.575942 23.9979C0.58077 23.9986 0.606175 24 0.650799 24C1.72195 24 14.2056 23.1765 19.8963 11.2934L19.9059 11.2735C18.8401 11.2573 17.7853 10.8433 16.9844 10.0423Z" fill="white"/>
<path d="M23.963 0.48013C23.8409 0.112114 23.4433 -0.0849486 23.0732 0.0351921C21.7347 0.481067 20.1953 1.64436 19.199 2.62551C19.6055 2.86635 19.9902 3.14427 20.3398 3.47685C21.1538 2.71855 22.4525 1.72447 23.5181 1.37001C23.8862 1.2471 24.0853 0.848849 23.963 0.48013Z" fill="white"/>
</svg>
