<svg width="27" height="25" viewBox="0 0 27 25" fill="none" xmlns="http://www.w3.org/2000/svg">
<g clip-path="url(#clip0)">
<path d="M13.5 17.1689C14.5108 15.2537 16.4064 13.8099 18.6903 13.2944V6.46839C18.6903 5.0925 18.2432 3.7673 17.3974 2.63605C16.5515 1.50479 15.3692 0.650913 13.9784 0.166766L13.4998 0L13.0211 0.166717C11.6302 0.650961 10.4479 1.50484 9.60203 2.63605C8.75619 3.7673 8.30908 5.0925 8.30908 6.46839V13.2942C10.5933 13.8097 12.4892 15.2535 13.5 17.1689ZM14.2902 5.27639H15.871V6.7402H14.2902V5.27639ZM14.2902 10.1557H15.871V11.6195H14.2902V10.1557ZM12.7093 2.83672H14.2901V4.30053H12.7093V2.83672ZM12.7093 7.716H14.2901V9.17981H12.7093V7.716ZM12.7093 12.5954H14.2901V14.0592H12.7093V12.5954ZM11.1284 5.27639H12.7092V6.7402H11.1284V5.27639ZM11.1284 10.1557H12.7092V11.6195H11.1284V10.1557Z" fill="white"/>
<path d="M19.7556 14.5975C16.7015 14.9555 14.327 17.3601 14.2904 20.2756C14.2907 20.2983 14.2908 20.3213 14.2908 20.344V25C17.3682 24.6391 19.7556 22.1997 19.7556 19.2539V14.5975Z" fill="white"/>
<path d="M12.7092 25V20.3439C12.7092 20.3212 12.7093 20.2982 12.7096 20.2756C12.673 17.36 10.2985 14.9554 7.24438 14.5974V19.2538C7.24438 22.1997 9.63178 24.639 12.7092 25Z" fill="white"/>
</g>
<defs>
<clipPath id="clip0">
<rect width="27" height="25" fill="white"/>
</clipPath>
</defs>
</svg>
