<svg width="25" height="26" viewBox="0 0 25 26" fill="none" xmlns="http://www.w3.org/2000/svg">
<path d="M24.2188 23.7656C24.2188 23.8734 24.1776 23.9767 24.1043 24.0529C24.0311 24.1291 23.9317 24.1719 23.8281 24.1719C22.9791 24.1719 22.5808 24.3862 22.1195 24.6342C21.6375 24.8936 21.091 25.1875 20.0519 25.1875C19.0128 25.1875 18.4664 24.8936 17.9844 24.6343C17.5231 24.3862 17.1248 24.1719 16.2757 24.1719C15.4267 24.1719 15.0284 24.3862 14.5672 24.6343C14.0851 24.8936 13.5387 25.1875 12.4997 25.1875C11.4607 25.1875 10.9143 24.8936 10.4322 24.6342C9.97104 24.3862 9.57285 24.1719 8.72378 24.1719C7.87471 24.1719 7.47647 24.3862 7.01528 24.6342C6.5332 24.8936 5.98682 25.1875 4.9478 25.1875C3.90879 25.1875 3.3624 24.8936 2.88032 24.6342C2.41914 24.3862 2.0208 24.1719 1.17188 24.1719C1.06827 24.1719 0.968918 24.1291 0.895661 24.0529C0.822405 23.9767 0.78125 23.8734 0.78125 23.7656C0.78125 23.6579 0.822405 23.5546 0.895661 23.4784C0.968918 23.4022 1.06827 23.3594 1.17188 23.3594C2.21089 23.3594 2.75728 23.6533 3.23931 23.9126C3.45292 24.0351 3.67601 24.1388 3.90625 24.2227V21.9097C3.11904 21.798 2.49902 21.3392 2.06055 20.5397C1.8885 20.2202 1.75451 19.8801 1.66152 19.527C3.11279 19.6915 3.74536 20.5623 3.90625 20.8277V19.6292C3.55582 19.3282 3.15572 19.0959 2.72544 18.9437C2.68638 18.9102 2.6478 18.8757 2.6104 18.8393C2.0645 18.309 1.79053 17.5698 1.66177 17.0893C3.11289 17.254 3.74536 18.1247 3.90625 18.39V17.1916C3.55582 16.8906 3.15572 16.6583 2.72544 16.506C2.68638 16.4726 2.6478 16.438 2.6104 16.4017C2.0645 15.8714 1.79053 15.1322 1.66177 14.6517C3.11289 14.8163 3.74536 15.6871 3.90625 15.9524V14.7539C3.55582 14.4529 3.15572 14.2206 2.72544 14.0684C2.68638 14.0349 2.6478 14.0004 2.6104 13.964C2.0645 13.4337 1.79053 12.6945 1.66177 12.214C3.11289 12.3787 3.74536 13.2494 3.90625 13.5147V12.3163C3.55582 12.0153 3.15572 11.783 2.72544 11.6307C2.68638 11.5973 2.6478 11.5627 2.6104 11.5264C2.0645 10.9961 1.79053 10.2568 1.66177 9.77636C3.11289 9.94104 3.74536 10.8118 3.90625 11.0771V9.87863C3.55582 9.57762 3.15572 9.34534 2.72544 9.19308C2.68638 9.15962 2.6478 9.12509 2.6104 9.08873C2.0645 8.55842 1.79053 7.8192 1.66177 7.3387C3.11289 7.50339 3.74536 8.37413 3.90625 8.63941V7.44098C3.55582 7.13997 3.15572 6.90768 2.72544 6.75543C2.68638 6.72197 2.6478 6.68743 2.6104 6.65108C2.0645 6.12077 1.79053 5.38154 1.66177 4.90105C3.11289 5.06665 3.74536 5.9374 3.90625 6.20268V5.6875C3.90625 5.57976 3.94741 5.47643 4.02066 5.40024C4.09392 5.32405 4.19327 5.28125 4.29688 5.28125C4.40048 5.28125 4.49983 5.32405 4.57309 5.40024C4.64634 5.47643 4.6875 5.57976 4.6875 5.6875V6.20263C4.84863 5.93724 5.4812 5.06614 6.93325 4.90186C6.80561 5.38099 6.53257 6.11848 5.98335 6.65199C5.94595 6.68835 5.90737 6.72308 5.86831 6.75634C5.43805 6.90852 5.03795 7.14072 4.6875 7.44164V8.64008C4.84863 8.37469 5.4812 7.50359 6.93325 7.33931C6.80561 7.81843 6.53257 8.55593 5.98335 9.08944C5.94595 9.1258 5.90737 9.16053 5.86831 9.19379C5.43805 9.34598 5.03795 9.5782 4.6875 9.87914V11.0776C4.84863 10.8122 5.4812 9.94109 6.93325 9.77681C6.80561 10.2559 6.53257 10.9934 5.98335 11.5269C5.94595 11.5633 5.90737 11.598 5.86831 11.6313C5.43805 11.7835 5.03795 12.0157 4.6875 12.3166V13.5151C4.84863 13.2497 5.4812 12.3786 6.93325 12.2143C6.80561 12.6934 6.53257 13.4309 5.98335 13.9644C5.94595 14.0008 5.90737 14.0355 5.86831 14.0688C5.43805 14.221 5.03795 14.4532 4.6875 14.7541V15.9526C4.84863 15.6872 5.4812 14.8161 6.93325 14.6518C6.80561 15.1309 6.53257 15.8684 5.98335 16.4019C5.94595 16.4383 5.90737 16.473 5.86831 16.5063C5.43805 16.6585 5.03795 16.8907 4.6875 17.1916V18.3901C4.84863 18.1247 5.4812 17.2536 6.93325 17.0893C6.80561 17.5684 6.53257 18.3059 5.98335 18.8394C5.94595 18.8758 5.90737 18.9105 5.86831 18.9438C5.43805 19.096 5.03795 19.3282 4.6875 19.6291V20.8276C4.84863 20.5622 5.48096 19.6914 6.93232 19.5269C6.83941 19.8801 6.70543 20.2201 6.53335 20.5396C6.09473 21.3391 5.47471 21.798 4.68765 21.9096V24.3671C4.76982 24.3719 4.85581 24.3749 4.94795 24.3749C5.79692 24.3749 6.19526 24.1606 6.65645 23.9125C7.13838 23.6533 7.68477 23.3594 8.72378 23.3594C9.76279 23.3594 10.3092 23.6533 10.7912 23.9126C11.1751 24.1191 11.5164 24.3018 12.1096 24.3573V21.0972C11.3224 20.9855 10.7023 20.5266 10.2639 19.7271C10.0918 19.4077 9.95783 19.0676 9.86484 18.7144C11.3163 18.879 11.9488 19.7498 12.1097 20.0151V18.8167C11.7593 18.5157 11.3592 18.2834 10.9289 18.1311C10.8898 18.0977 10.8513 18.0631 10.8139 18.0268C10.268 17.4965 9.99399 16.7573 9.86523 16.2768C11.3164 16.4414 11.9488 17.3122 12.1097 17.5775V16.379C11.7593 16.078 11.3592 15.8457 10.9289 15.6935C10.8898 15.66 10.8513 15.6255 10.8139 15.5891C10.268 15.0588 9.99399 14.3196 9.86523 13.8391C11.3164 14.0038 11.9488 14.8745 12.1097 15.1398V13.9414C11.7593 13.6404 11.3592 13.4081 10.9289 13.2558C10.8898 13.2224 10.8513 13.1878 10.8139 13.1515C10.268 12.6212 9.99399 11.8819 9.86523 11.4015C11.3164 11.5661 11.9488 12.4369 12.1097 12.7022V11.5037C11.7593 11.2027 11.3592 10.9704 10.9289 10.8182C10.8898 10.7847 10.8513 10.7502 10.8139 10.7138C10.268 10.1835 9.99399 9.4443 9.86523 8.96381C11.3164 9.12849 11.9488 9.99924 12.1097 10.2645V9.06608C11.7593 8.76507 11.3592 8.53278 10.9289 8.38053C10.8898 8.34707 10.8513 8.31254 10.8139 8.27618C10.268 7.74587 9.99399 7.00665 9.86523 6.52615C11.3164 6.69084 11.9488 7.56158 12.1097 7.82686V6.62843C11.7593 6.32742 11.3592 6.09513 10.9289 5.94288C10.8898 5.90942 10.8513 5.87488 10.8139 5.83852C10.268 5.30822 9.99399 4.56899 9.86523 4.0885C11.3164 4.25318 11.9488 5.12393 12.1097 5.38921V4.19077C11.7593 3.88977 11.3592 3.65748 10.9289 3.50523C10.8898 3.47176 10.8513 3.43723 10.8139 3.40087C10.268 2.87056 9.99399 2.13134 9.86523 1.65085C11.3164 1.81553 11.9488 2.68628 12.1097 2.95156V2.84375C12.1097 2.73601 12.1509 2.63268 12.2241 2.55649C12.2974 2.4803 12.3967 2.4375 12.5003 2.4375C12.6039 2.4375 12.7033 2.4803 12.7766 2.55649C12.8498 2.63268 12.891 2.73601 12.891 2.84375V2.95263C13.0521 2.68724 13.6847 1.81614 15.1367 1.65186C15.0091 2.13099 14.736 2.86848 14.1868 3.40199C14.1494 3.43835 14.1108 3.47308 14.0718 3.50634C13.6414 3.65848 13.2412 3.89068 12.8906 4.19164V5.39008C13.0518 5.12469 13.6843 4.25359 15.1364 4.08931C15.0087 4.56843 14.7357 5.30593 14.1865 5.83944C14.1491 5.8758 14.1105 5.91053 14.0714 5.94379C13.6412 6.09598 13.2411 6.3282 12.8906 6.62914V7.82758C13.0518 7.56219 13.6843 6.69109 15.1364 6.52681C15.0087 7.00593 14.7357 7.74343 14.1865 8.27694C14.1491 8.3133 14.1105 8.34803 14.0714 8.38129C13.6412 8.53348 13.2411 8.7657 12.8906 9.06664V10.2651C13.0518 9.99969 13.6843 9.12859 15.1364 8.96431C15.0087 9.44343 14.7357 10.1809 14.1865 10.7144C14.1491 10.7508 14.1105 10.7855 14.0714 10.8188C13.6412 10.971 13.2411 11.2032 12.8906 11.5041V12.7026C13.0518 12.4372 13.6843 11.5661 15.1364 11.4018C15.0087 11.8809 14.7357 12.6184 14.1865 13.1519C14.1491 13.1883 14.1105 13.223 14.0714 13.2563C13.6412 13.4085 13.2411 13.6407 12.8906 13.9416V15.1401C13.0518 14.8747 13.6843 14.0036 15.1364 13.8393C15.0087 14.3184 14.7357 15.0559 14.1865 15.5894C14.1491 15.6258 14.1105 15.6605 14.0714 15.6938C13.6412 15.846 13.2411 16.0782 12.8906 16.3791V17.5776C13.0518 17.3122 13.6843 16.4411 15.1364 16.2768C15.0087 16.7559 14.7357 17.4934 14.1865 18.0269C14.1491 18.0633 14.1105 18.098 14.0714 18.1313C13.6412 18.2835 13.2411 18.5157 12.8906 18.8166V20.0151C13.0518 19.7497 13.6841 18.8789 15.1354 18.7144C15.0425 19.0676 14.9086 19.4076 14.7365 19.7271C14.2979 20.5266 13.6778 20.9855 12.8908 21.0971V24.3573C13.4833 24.3014 13.8246 24.1191 14.2083 23.9126C14.6903 23.6533 15.2367 23.3594 16.2757 23.3594C17.3148 23.3594 17.8612 23.6533 18.3433 23.9126C18.8045 24.1607 19.2026 24.375 20.0519 24.375C20.1442 24.375 20.2302 24.372 20.3125 24.3672V21.9097C19.5253 21.798 18.9053 21.3392 18.4668 20.5397C18.2948 20.2202 18.1608 19.8801 18.0678 19.527C19.5192 19.6915 20.1518 20.5623 20.3126 20.8277V19.6292C19.9622 19.3282 19.5621 19.0959 19.1318 18.9437C19.0928 18.9102 19.0542 18.8757 19.0168 18.8393C18.4709 18.309 18.1969 17.5698 18.0682 17.0893C19.5193 17.254 20.1518 18.1247 20.3126 18.39V17.1916C19.9622 16.8906 19.5621 16.6583 19.1318 16.506C19.0928 16.4726 19.0542 16.438 19.0168 16.4017C18.4709 15.8714 18.1969 15.1322 18.0682 14.6517C19.5193 14.8163 20.1518 15.6871 20.3126 15.9524V14.7539C19.9622 14.4529 19.5621 14.2206 19.1318 14.0684C19.0928 14.0349 19.0542 14.0004 19.0168 13.964C18.4709 13.4337 18.1969 12.6945 18.0682 12.214C19.5193 12.3787 20.1518 13.2494 20.3126 13.5147V12.3163C19.9622 12.0153 19.5621 11.783 19.1318 11.6307C19.0928 11.5973 19.0542 11.5627 19.0168 11.5264C18.4709 10.9961 18.1969 10.2568 18.0682 9.77636C19.5193 9.94104 20.1518 10.8118 20.3126 11.0771V9.87863C19.9622 9.57762 19.5621 9.34534 19.1318 9.19308C19.0928 9.15962 19.0542 9.12509 19.0168 9.08873C18.4709 8.55842 18.1969 7.8192 18.0682 7.3387C19.5193 7.50339 20.1518 8.37413 20.3126 8.63941V7.44098C19.9622 7.13997 19.5621 6.90768 19.1318 6.75543C19.0928 6.72197 19.0542 6.68743 19.0168 6.65108C18.4709 6.12077 18.1969 5.38154 18.0682 4.90105C19.5193 5.06574 20.1518 5.93648 20.3126 6.20176V5.6875C20.3126 5.57976 20.3538 5.47643 20.4271 5.40024C20.5003 5.32405 20.5997 5.28125 20.7033 5.28125C20.8069 5.28125 20.9062 5.32405 20.9795 5.40024C21.0527 5.47643 21.0939 5.57976 21.0939 5.6875V6.20263C21.255 5.93724 21.8876 5.06614 23.3396 4.90186C23.212 5.38099 22.939 6.11848 22.3897 6.65199C22.3523 6.68835 22.3138 6.72308 22.2747 6.75634C21.8444 6.9085 21.4442 7.14071 21.0938 7.44164V8.64008C21.2549 8.37469 21.8875 7.50359 23.3395 7.33931C23.2119 7.81843 22.9388 8.55593 22.3896 9.08944C22.3522 9.1258 22.3136 9.16053 22.2746 9.19379C21.8443 9.34598 21.4442 9.5782 21.0938 9.87914V11.0776C21.2549 10.8122 21.8875 9.94109 23.3395 9.77681C23.2119 10.2559 22.9388 10.9934 22.3896 11.5269C22.3522 11.5633 22.3136 11.598 22.2746 11.6313C21.8443 11.7835 21.4442 12.0157 21.0938 12.3166V13.5151C21.2549 13.2497 21.8875 12.3786 23.3395 12.2143C23.2119 12.6934 22.9388 13.4309 22.3896 13.9644C22.3522 14.0008 22.3136 14.0355 22.2746 14.0688C21.8443 14.221 21.4442 14.4532 21.0938 14.7541V15.9526C21.2549 15.6872 21.8875 14.8161 23.3395 14.6518C23.2119 15.1309 22.9388 15.8684 22.3896 16.4019C22.3522 16.4383 22.3136 16.473 22.2746 16.5063C21.8443 16.6585 21.4442 16.8907 21.0938 17.1916V18.3901C21.2549 18.1247 21.8875 17.2536 23.3395 17.0893C23.2119 17.5684 22.9388 18.3059 22.3896 18.8394C22.3522 18.8758 22.3136 18.9105 22.2746 18.9438C21.8443 19.096 21.4442 19.3282 21.0938 19.6291V20.8276C21.2549 20.5622 21.8872 19.6914 23.3386 19.5269C23.2457 19.8801 23.1117 20.2201 22.9396 20.5396C22.501 21.3391 21.881 21.798 21.0939 21.9096V24.2227C21.3241 24.1389 21.5472 24.0353 21.7607 23.9129C22.2426 23.6533 22.7891 23.3594 23.8281 23.3594C23.9317 23.3594 24.0311 23.4022 24.1043 23.4784C24.1776 23.5546 24.2188 23.6579 24.2188 23.7656Z" fill="white"/>
</svg>
