<svg width="26" height="23" viewBox="0 0 26 23" fill="none" xmlns="http://www.w3.org/2000/svg">
<path d="M18.6021 7.68168C20.8104 7.68168 22.783 8.59017 24.0684 10.0065C24.0802 9.87686 24.0865 9.74578 24.0865 9.61344C24.0865 6.93827 21.6262 4.76187 18.6021 4.76187C15.578 4.76187 13.1178 6.93827 13.1178 9.61344C13.1178 9.74578 13.124 9.87686 13.1359 10.0065C14.4213 8.59017 16.3939 7.68168 18.6021 7.68168Z" fill="white"/>
<path d="M18.6021 9.02933C15.578 9.02933 13.1178 11.2057 13.1178 13.8809C13.1178 14.0132 13.124 14.1443 13.1359 14.274C14.4213 12.8576 16.3939 11.9491 18.6021 11.9491C20.8104 11.9491 22.783 12.8576 24.0684 14.274C24.0802 14.1443 24.0865 14.0132 24.0865 13.8809C24.0865 11.2057 21.6262 9.02933 18.6021 9.02933Z" fill="white"/>
<path d="M18.6021 22.9998C21.631 22.9998 24.0865 20.8277 24.0865 18.1483C24.0865 15.4689 21.631 13.2968 18.6021 13.2968C15.5732 13.2968 13.1178 15.4689 13.1178 18.1483C13.1178 20.8277 15.5732 22.9998 18.6021 22.9998Z" fill="white"/>
<path d="M8.48876 1.48287C8.47475 0.663182 7.71704 0 6.78714 0H4.90605C3.97614 0 3.21843 0.663137 3.20447 1.48287C4.00966 1.16181 4.90437 0.988281 5.84662 0.988281C6.78886 0.988281 7.68353 1.16181 8.48876 1.48287Z" fill="white"/>
<path d="M11.3155 8.02574C11.3158 8.02696 11.3161 8.02812 11.3164 8.02938C11.1733 8.05804 10.908 8.16513 10.7225 8.24006C10.2039 8.44953 9.52441 8.72396 8.71663 8.72396C8.19339 8.72396 7.61637 8.60882 6.9943 8.28624C6.63142 8.09807 6.50965 7.68519 6.72242 7.36418C6.93519 7.04317 7.40197 6.9355 7.76475 7.12367C8.66413 7.59009 9.35663 7.31028 10.0896 7.0142C10.3509 6.90863 10.6516 6.78726 10.9671 6.72194C10.9696 6.72971 10.9718 6.73766 10.9743 6.74543C10.9738 6.74332 10.9738 6.74108 10.9731 6.73901C10.769 6.0903 10.5227 5.46508 10.2352 4.87203C9.47693 3.30772 7.79532 2.33594 5.8466 2.33594C3.89789 2.33594 2.21628 3.30772 1.45797 4.87203C0.627042 6.58646 0.139647 8.56952 0.0222928 10.6122C0.0221912 10.614 0.0227498 10.6157 0.0228006 10.6175C0.0231561 10.6118 0.0233084 10.606 0.0236131 10.6002C0.733276 10.4769 1.30527 10.6334 1.79241 10.767C2.31241 10.9097 2.72328 11.0222 3.3524 10.8556C3.7556 10.7489 4.17998 10.9513 4.30063 11.3077C4.42134 11.6643 4.19247 12.0398 3.78952 12.1465C3.40557 12.2483 3.06153 12.2869 2.74988 12.2869C2.18992 12.2869 1.73478 12.1621 1.34138 12.0542C0.810259 11.9085 0.491609 11.8222 0.000457028 12.0126C0.000457028 12.0115 0.000457028 12.0104 0.000406247 12.0093C0.000406247 12.0104 0 12.0115 0 12.0126C0.0207694 12.8291 0.100698 13.6476 0.241463 14.4549C0.879474 18.1145 2.7087 21.1019 5.39216 22.8667C5.52704 22.9555 5.68685 22.9998 5.8466 22.9998C6.00636 22.9998 6.16617 22.9555 6.30104 22.8667C8.41286 21.4779 9.9956 19.3318 10.8851 16.6968C10.8894 16.6838 10.891 16.6707 10.8907 16.6575C10.6877 16.6355 10.466 16.6898 10.0904 16.7896C9.66649 16.9022 9.15508 17.038 8.50853 17.038C7.99555 17.038 7.39765 16.9526 6.69038 16.7023C6.29982 16.5641 6.1098 16.1719 6.2661 15.8264C6.42231 15.4809 6.86552 15.3126 7.25623 15.4511C8.36081 15.842 8.98806 15.6753 9.65232 15.4988C10.1307 15.3717 10.6595 15.2314 11.2687 15.347C11.2681 15.3497 11.2674 15.3524 11.2667 15.355C11.2677 15.3524 11.269 15.3498 11.2696 15.3471C11.3383 15.0545 11.3991 14.757 11.4518 14.4548C11.8257 12.3101 11.7704 10.0867 11.317 8.0292C11.3166 8.02803 11.3159 8.02696 11.3155 8.02574Z" fill="white"/>
</svg>
